<svg xmlns="http://www.w3.org/2000/svg" viewBox="0 0 512 512">
  <defs>
    <linearGradient id="bg" x1="0" y1="0" x2="512" y2="512" gradientUnits="userSpaceOnUse">
      <stop offset="0%" stop-color="#8b5cf6"/>
      <stop offset="100%" stop-color="#4c1d95"/>
    </linearGradient>
  </defs>
  <!-- Fondo (sin bordes redondeados para que funcione como maskable) -->
  <rect width="512" height="512" fill="url(#bg)"/>
  <!-- Cuerpo blanco del calendario -->
  <rect x="80" y="120" width="352" height="312" rx="24" fill="white"/>
  <!-- Cabecera violeta del calendario -->
  <rect x="80" y="120" width="352" height="96" rx="24" fill="#6d28d9"/>
  <rect x="80" y="184" width="352" height="32" fill="#6d28d9"/>
  <!-- Anillas del calendario -->
  <rect x="160" y="76" width="24" height="88" rx="12" fill="#3b0764"/>
  <rect x="328" y="76" width="24" height="88" rx="12" fill="#3b0764"/>
  <!-- Fila 1 -->
  <rect x="120" y="244" width="48" height="48" rx="10" fill="#ede9fe"/>
  <rect x="176" y="244" width="48" height="48" rx="10" fill="#ede9fe"/>
  <rect x="232" y="244" width="48" height="48" rx="10" fill="#7c3aed"/>
  <rect x="288" y="244" width="48" height="48" rx="10" fill="#ede9fe"/>
  <rect x="344" y="244" width="48" height="48" rx="10" fill="#ede9fe"/>
  <!-- Fila 2 -->
  <rect x="120" y="300" width="48" height="48" rx="10" fill="#ede9fe"/>
  <rect x="176" y="300" width="48" height="48" rx="10" fill="#ede9fe"/>
  <rect x="232" y="300" width="48" height="48" rx="10" fill="#ede9fe"/>
  <rect x="288" y="300" width="48" height="48" rx="10" fill="#7c3aed"/>
  <rect x="344" y="300" width="48" height="48" rx="10" fill="#ede9fe"/>
  <!-- Fila 3 -->
  <rect x="120" y="356" width="48" height="48" rx="10" fill="#ede9fe"/>
  <rect x="176" y="356" width="48" height="48" rx="10" fill="#7c3aed"/>
  <rect x="232" y="356" width="48" height="48" rx="10" fill="#ede9fe"/>
  <rect x="288" y="356" width="48" height="48" rx="10" fill="#ede9fe"/>
  <rect x="344" y="356" width="48" height="48" rx="10" fill="#ede9fe"/>
</svg>
